<svg xmlns="http://www.w3.org/2000/svg" viewBox="0 0 1024 1024">
  <defs>
    <style>
      @import url('https://fonts.googleapis.com/css2?family=Open+Sans:wght@700&amp;display=swap');
      .cls-text {
        font-family: 'Open Sans', 'Helvetica Neue', Helvetica, Arial, sans-serif;
        font-weight: 700;
        letter-spacing: 0.1em;
      }
    </style>
  </defs>

  <circle cx="512" cy="512" r="500" fill="#E6DFD4" stroke="#6F4E37" stroke-width="24"/>
  <circle cx="512" cy="512" r="460" fill="none" stroke="#2D5A9E" stroke-width="12"/>
  <path d="M512,972a460,460,0,1,1,460-460A460,460,0,0,1,512,972Z" fill="none"/>
  
  <path d="M512,972a460,460,0,0,0,460-460H52A460,460,0,0,0,512,972Z" fill="#2D5A9E"/>
  <path d="M512,900a388,388,0,0,0,388-388H124A388,388,0,0,0,512,900Z" fill="#3E6F40"/>
  <path d="M512,740a228,228,0,0,0,228-228H284A228,228,0,0,0,512,740Z" fill="#234833"/>
  
  <path id="TopArc" d="M168,512A344,344,0,1,1,856,512" fill="none"/>
  <text fill="#234833" class="cls-text" font-size="64" text-anchor="middle">
    <textPath href="#TopArc" startOffset="50%">TORTOISE &amp; TURTLE</textPath>
  </text>
  
  <path id="BottomArc" d="M192,512a320,320,0,0,0,640,0" fill="none"/>
  <text fill="#E6DFD4" class="cls-text" font-size="52" text-anchor="middle">
    <textPath href="#BottomArc" startOffset="50%">ADOPTION <tspan fill="#E6DFD4" font-size="64">❤</tspan> REHOMING</textPath>
  </text>
  
  <path d="M684,548A172,172,0,0,0,340,548v24a172,172,0,0,0,344,0Z" fill="#D2B48C" stroke="#6F4E37" stroke-width="12"/>
  <path d="M632,548A120,120,0,1,0,392,548h240Z" fill="#A47E53" stroke="#6F4E37" stroke-width="12"/>
  <ellipse cx="512" cy="512" rx="160" ry="140" fill="#A47E53" stroke="#6F4E37" stroke-width="12"/>
  <ellipse cx="620" cy="620" rx="80" ry="40" fill="#A47E53" stroke="#6F4E37" stroke-width="12"/>
  <ellipse cx="404" cy="620" rx="80" ry="40" fill="#A47E53" stroke="#6F4E37" stroke-width="12"/>
  <ellipse cx="640" cy="480" rx="60" ry="30" fill="#A47E53" stroke="#6F4E37" stroke-width="12"/>
  <ellipse cx="384" cy="480" rx="60" ry="30" fill="#A47E53" stroke="#6F4E37" stroke-width="12"/>
  <ellipse cx="512" cy="650" rx="100" ry="110" fill="#A47E53" stroke="#6F4E37" stroke-width="12"/>
  <path d="M460,700a80,80,0,0,0,104,0" fill="none" stroke="#6F4E37" stroke-width="12" stroke-linecap="round"/>
  
  <ellipse cx="640" cy="460" rx="160" ry="120" fill="#78B087" stroke="#234833" stroke-width="12"/>
  <ellipse cx="580" cy="480" rx="60" ry="60" fill="#9ACD32" stroke="#234833" stroke-width="12"/>
  <path d="M552,504a32,32,0,0,0,40,0" fill="none" stroke="#234833" stroke-width="12" stroke-linecap="round"/>
  <ellipse cx="760" cy="440" rx="60" ry="30" fill="#78B087" stroke="#234833" stroke-width="12"/>
  <ellipse cx="560" cy="420" rx="40" ry="20" fill="#78B087" stroke="#234833" stroke-width="12"/>
  <ellipse cx="700" cy="380" rx="40" ry="20" fill="#78B087" stroke="#234833" stroke-width="12"/>
  <ellipse cx="580" cy="360" rx="40" ry="20" fill="#78B087" stroke="#234833" stroke-width="12"/>
</svg>
